<svg width="138" height="40" viewBox="0 0 138 40" fill="none" xmlns="http://www.w3.org/2000/svg">
<path d="M11.313 29.513C9.531 29.513 8.001 29.198 6.723 28.568C5.445 27.938 4.401 27.119 3.591 26.111C2.799 25.103 2.214 24.005 1.836 22.817C1.458 21.629 1.269 20.486 1.269 19.388V18.794C1.269 17.57 1.458 16.364 1.836 15.176C2.232 13.988 2.835 12.908 3.645 11.936C4.455 10.964 5.481 10.19 6.723 9.614C7.983 9.02 9.468 8.723 11.178 8.723C12.96 8.723 14.508 9.047 15.822 9.695C17.154 10.325 18.216 11.225 19.008 12.395C19.8 13.547 20.277 14.897 20.439 16.445H16.578C16.434 15.545 16.11 14.789 15.606 14.177C15.12 13.547 14.499 13.079 13.743 12.773C12.987 12.449 12.132 12.287 11.178 12.287C10.206 12.287 9.342 12.458 8.586 12.8C7.83 13.124 7.2 13.592 6.696 14.204C6.192 14.816 5.805 15.536 5.535 16.364C5.283 17.192 5.157 18.11 5.157 19.118C5.157 20.09 5.283 20.99 5.535 21.818C5.805 22.646 6.201 23.375 6.723 24.005C7.245 24.617 7.884 25.094 8.64 25.436C9.414 25.778 10.305 25.949 11.313 25.949C12.789 25.949 14.031 25.589 15.039 24.869C16.065 24.131 16.686 23.105 16.902 21.791H20.763C20.583 23.195 20.106 24.482 19.332 25.652C18.558 26.822 17.496 27.758 16.146 28.46C14.796 29.162 13.185 29.513 11.313 29.513ZM30.1544 29.513C28.8944 29.513 27.7874 29.297 26.8334 28.865C25.8974 28.433 25.1144 27.857 24.4844 27.137C23.8724 26.399 23.4044 25.58 23.0804 24.68C22.7744 23.78 22.6214 22.862 22.6214 21.926V21.413C22.6214 20.441 22.7744 19.505 23.0804 18.605C23.4044 17.687 23.8724 16.877 24.4844 16.175C25.1144 15.455 25.8884 14.888 26.8064 14.474C27.7244 14.042 28.7864 13.826 29.9924 13.826C31.5764 13.826 32.8994 14.177 33.9614 14.879C35.0414 15.563 35.8514 16.472 36.3914 17.606C36.9314 18.722 37.2014 19.928 37.2014 21.224V22.574H24.2144V20.279H34.8524L33.6914 21.413C33.6914 20.477 33.5564 19.676 33.2864 19.01C33.0164 18.344 32.6024 17.831 32.0444 17.471C31.5044 17.111 30.8204 16.931 29.9924 16.931C29.1644 16.931 28.4624 17.12 27.8864 17.498C27.3104 17.876 26.8694 18.425 26.5634 19.145C26.2754 19.847 26.1314 20.693 26.1314 21.683C26.1314 22.601 26.2754 23.42 26.5634 24.14C26.8514 24.842 27.2924 25.4 27.8864 25.814C28.4804 26.21 29.2364 26.408 30.1544 26.408C31.0724 26.408 31.8194 26.228 32.3954 25.868C32.9714 25.49 33.3404 25.031 33.5024 24.491H36.9584C36.7424 25.499 36.3284 26.381 35.7164 27.137C35.1044 27.893 34.3214 28.478 33.3674 28.892C32.4314 29.306 31.3604 29.513 30.1544 29.513ZM40.2285 29V14.339H43.1985V20.549H43.1175C43.1175 18.443 43.5675 16.85 44.4675 15.77C45.3675 14.69 46.6905 14.15 48.4365 14.15H48.9765V17.417H47.9505C46.6905 17.417 45.7095 17.759 45.0075 18.443C44.3235 19.109 43.9815 20.081 43.9815 21.359V29H40.2285ZM58.0677 29.189C56.7177 29.189 55.6017 29.018 54.7197 28.676C53.8557 28.316 53.2077 27.722 52.7757 26.894C52.3437 26.048 52.1277 24.914 52.1277 23.492L52.1547 10.208H55.6647L55.6377 23.735C55.6377 24.455 55.8267 25.013 56.2047 25.409C56.6007 25.787 57.1587 25.976 57.8787 25.976H60.1737V29.189H58.0677ZM49.8057 17.093V14.339H60.1737V17.093H49.8057Z" fill="#19A68E"/>
<path d="M68.9396 34.778C68.2376 34.778 67.5176 34.751 66.7796 34.697C66.0596 34.643 65.3846 34.571 64.7546 34.481V31.349C65.4026 31.421 66.0956 31.484 66.8336 31.538C67.5716 31.61 68.2646 31.646 68.9126 31.646C70.1186 31.646 71.0906 31.502 71.8287 31.214C72.5847 30.926 73.1336 30.467 73.4756 29.837C73.8356 29.225 74.0157 28.442 74.0157 27.488V24.599L74.8256 22.763C74.7717 24.113 74.4927 25.265 73.9886 26.219C73.4846 27.155 72.8006 27.875 71.9366 28.379C71.0726 28.865 70.0736 29.108 68.9396 29.108C67.9316 29.108 67.0136 28.919 66.1856 28.541C65.3756 28.163 64.6736 27.641 64.0796 26.975C63.5036 26.309 63.0536 25.526 62.7296 24.626C62.4056 23.726 62.2436 22.763 62.2436 21.737V21.17C62.2436 20.144 62.4056 19.19 62.7296 18.308C63.0716 17.408 63.5486 16.625 64.1606 15.959C64.7726 15.293 65.5016 14.78 66.3476 14.42C67.1936 14.06 68.1296 13.88 69.1556 13.88C70.3616 13.88 71.4056 14.141 72.2876 14.663C73.1877 15.185 73.8897 15.941 74.3937 16.931C74.8977 17.921 75.1767 19.136 75.2307 20.576L74.5826 20.684V14.339H77.5526V27.272C77.5526 29.054 77.2466 30.494 76.6347 31.592C76.0227 32.69 75.0777 33.491 73.7996 33.995C72.5396 34.517 70.9196 34.778 68.9396 34.778ZM70.0197 25.895C70.7396 25.895 71.3966 25.733 71.9906 25.409C72.5846 25.085 73.0616 24.617 73.4216 24.005C73.7816 23.393 73.9616 22.655 73.9616 21.791V20.846C73.9616 20.018 73.7727 19.316 73.3947 18.74C73.0346 18.164 72.5576 17.732 71.9636 17.444C71.3696 17.138 70.7216 16.985 70.0197 16.985C69.2276 16.985 68.5256 17.174 67.9136 17.552C67.3196 17.912 66.8516 18.425 66.5096 19.091C66.1676 19.757 65.9966 20.549 65.9966 21.467C65.9966 22.367 66.1676 23.15 66.5096 23.816C66.8516 24.482 67.3196 24.995 67.9136 25.355C68.5256 25.715 69.2276 25.895 70.0197 25.895ZM88.5853 29.513C87.2893 29.513 86.1463 29.306 85.1563 28.892C84.1663 28.478 83.3293 27.92 82.6453 27.218C81.9613 26.498 81.4393 25.688 81.0793 24.788C80.7373 23.888 80.5663 22.952 80.5663 21.98V21.413C80.5663 20.405 80.7463 19.451 81.1063 18.551C81.4843 17.633 82.0153 16.823 82.6993 16.121C83.4013 15.401 84.2473 14.843 85.2373 14.447C86.2273 14.033 87.3433 13.826 88.5853 13.826C89.8273 13.826 90.9433 14.033 91.9333 14.447C92.9233 14.843 93.7603 15.401 94.4443 16.121C95.1463 16.823 95.6773 17.633 96.0373 18.551C96.3973 19.451 96.5773 20.405 96.5773 21.413V21.98C96.5773 22.952 96.3973 23.888 96.0373 24.788C95.6953 25.688 95.1823 26.498 94.4983 27.218C93.8143 27.92 92.9773 28.478 91.9873 28.892C90.9973 29.306 89.8633 29.513 88.5853 29.513ZM88.5853 26.3C89.5033 26.3 90.2773 26.102 90.9073 25.706C91.5373 25.292 92.0143 24.743 92.3383 24.059C92.6623 23.357 92.8243 22.565 92.8243 21.683C92.8243 20.783 92.6533 19.991 92.3113 19.307C91.9873 18.605 91.5013 18.056 90.8533 17.66C90.2233 17.246 89.4673 17.039 88.5853 17.039C87.7033 17.039 86.9383 17.246 86.2903 17.66C85.6603 18.056 85.1743 18.605 84.8323 19.307C84.4903 19.991 84.3193 20.783 84.3193 21.683C84.3193 22.565 84.4813 23.357 84.8053 24.059C85.1473 24.743 85.6333 25.292 86.2633 25.706C86.8933 26.102 87.6673 26.3 88.5853 26.3Z" fill="#7B41B4"/>
<mask id="mask0_5706_20390" style="mask-type:alpha" maskUnits="userSpaceOnUse" x="110" y="12" width="16" height="21">
<path d="M110.819 32.5938H125.181V12.8177H110.819V32.5938Z" fill="white"/>
</mask>
<g mask="url(#mask0_5706_20390)">
<path d="M121.689 26.1411V31.964C121.689 32.3118 121.407 32.5938 121.06 32.5938H114.94C114.592 32.5938 114.31 32.3118 114.31 31.964V26.1411C112.228 24.8857 110.832 22.6024 110.832 19.9985C110.832 16.0464 114.047 12.831 118 12.831C121.952 12.831 125.167 16.0466 125.167 19.9985C125.167 22.6022 123.771 24.8855 121.689 26.1411H121.689ZM115.57 31.3343H120.43V26.7414C119.67 27.0156 118.852 27.1661 118 27.1661C117.147 27.1661 116.329 27.0156 115.57 26.7411L115.57 31.3343ZM118 14.0907C114.742 14.0907 112.092 16.7409 112.092 19.9987C112.092 23.2562 114.742 25.9067 118 25.9067C121.257 25.9067 123.908 23.2565 123.908 19.9987C123.908 16.7409 121.257 14.0907 118 14.0907Z" fill="#19A68E"/>
</g>
<mask id="mask1_5706_20390" style="mask-type:alpha" maskUnits="userSpaceOnUse" x="105" y="19" width="5" height="2">
<path d="M105.405 20.0023C105.405 20.3548 105.691 20.6406 106.043 20.6406H109.064C109.416 20.6406 109.702 20.3548 109.702 20.0023C109.702 19.6498 109.416 19.364 109.064 19.364H106.043C105.691 19.364 105.405 19.6498 105.405 20.0023Z" fill="white"/>
</mask>
<g mask="url(#mask1_5706_20390)">
<path d="M109.687 20.003C109.687 20.3508 109.405 20.6328 109.057 20.6328H106.035C105.687 20.6328 105.405 20.3509 105.405 20.003C105.405 19.6552 105.687 19.3732 106.035 19.3732H109.057C109.405 19.3732 109.687 19.655 109.687 20.003Z" fill="#19A68E"/>
</g>
<mask id="mask2_5706_20390" style="mask-type:alpha" maskUnits="userSpaceOnUse" x="126" y="19" width="5" height="2">
<path d="M126.298 20.6406H130.595V19.364H126.298V20.6406Z" fill="white"/>
</mask>
<g mask="url(#mask2_5706_20390)">
<path d="M129.966 20.6328H126.943C126.595 20.6328 126.313 20.3509 126.313 20.003C126.313 19.6552 126.595 19.3732 126.943 19.3732H129.966C130.313 19.3732 130.595 19.6552 130.595 20.003C130.595 20.3509 130.313 20.6328 129.966 20.6328Z" fill="#19A68E"/>
</g>
<mask id="mask3_5706_20390" style="mask-type:alpha" maskUnits="userSpaceOnUse" x="117" y="7" width="2" height="5">
<path d="M117.362 11.7031H118.638V7.40562H117.362V11.7031Z" fill="white"/>
</mask>
<g mask="url(#mask3_5706_20390)">
<path d="M118 11.6875C117.652 11.6875 117.37 11.4055 117.37 11.0577V8.03495C117.37 7.68712 117.652 7.40516 118 7.40516C118.348 7.40516 118.63 7.68712 118.63 8.03495V11.0577C118.63 11.4055 118.348 11.6875 118 11.6875Z" fill="#19A68E"/>
</g>
<path d="M111.232 25.8813C111.355 25.7583 111.516 25.697 111.677 25.697C111.838 25.697 111.999 25.7585 112.122 25.8813C112.368 26.1271 112.368 26.5258 112.122 26.7718L109.985 28.9092C109.739 29.1553 109.34 29.1553 109.094 28.9092C108.848 28.6634 108.848 28.2647 109.094 28.0187L111.232 25.8813Z" fill="#19A68E"/>
<path d="M124.769 14.1202C124.523 14.3662 124.124 14.3662 123.878 14.1202C123.632 13.8742 123.632 13.4757 123.878 13.2296L126.016 11.0922C126.139 10.9692 126.3 10.9079 126.461 10.9079C126.622 10.9079 126.783 10.9694 126.906 11.0922C127.152 11.3382 127.152 11.7367 126.906 11.9827L124.769 14.1202Z" fill="#19A68E"/>
<path d="M124.324 25.697C124.485 25.697 124.646 25.7585 124.769 25.8813L126.906 28.0187C127.152 28.2645 127.152 28.6632 126.906 28.9092C126.66 29.1553 126.262 29.1553 126.016 28.9092L123.878 26.7718C123.632 26.526 123.632 26.1273 123.878 25.8813C124.001 25.7583 124.163 25.697 124.324 25.697H124.324Z" fill="#19A68E"/>
<path d="M111.232 14.12C111.232 14.12 111.232 14.12 111.232 14.12L109.094 11.9826C108.848 11.7366 108.848 11.3381 109.094 11.092C109.217 10.969 109.378 10.9077 109.539 10.9077C109.701 10.9077 109.862 10.9692 109.985 11.092L112.122 13.2295C112.368 13.4755 112.368 13.874 112.122 14.12C111.877 14.3662 111.477 14.3662 111.232 14.12C111.232 14.12 111.232 14.12 111.232 14.12Z" fill="#19A68E"/>
</svg>
